# xmcd CD database file
#
# Track frame offsets:
#	150
#	21132
#	42139
#	75631
#	107166
#	134600
#	157961
#	191718
#	219134
#	239197
#	252568
#
# Disc length: 3420 seconds
#
# Revision: 0
# Processed by: cddbd v1.5.1PL2 Copyright (c) Steve Scherf et al.
# Submitted via: CDex 1.51
#
DISCID=970d5a0b
DTITLE=John Hicks and Ray Drummond - Two of a Kind
DYEAR=1986
DGENRE=Jazz
TTITLE0=I'll Be Around
TTITLE1=Take The Coltrane
TTITLE2=Very Early
TTITLE3=Getting Sentimental Over You
TTITLE4=For Heaven's Sake
TTITLE5=Come Rain Or Come Shine
TTITLE6=A Rose Without A Thorn
TTITLE7=Without A Song
TTITLE8=A Nightingale Sang In Berkeley Square
TTITLE9=Parisian Thoroughfare
TTITLE10=Springtime Fantasy
EXTD=YEAR: 1986
EXTT0=
EXTT1=
EXTT2=
EXTT3=
EXTT4=
EXTT5=
EXTT6=
EXTT7=
EXTT8=
EXTT9=
EXTT10=
PLAYORDER=
